<?xml version="1.0" encoding="utf-8"?>
<!-- Generator: Adobe Illustrator 23.0.4, SVG Export Plug-In . SVG Version: 6.00 Build 0)  -->
<svg version="1.1" id="Capa_1" xmlns="http://www.w3.org/2000/svg" xmlns:xlink="http://www.w3.org/1999/xlink" x="0px" y="0px"
	 viewBox="0 0 512 512" style="enable-background:new 0 0 512 512;" xml:space="preserve">
<style type="text/css">
	.st0{fill:#A6319C;}
</style>
<g>
	<g>
		<path class="st0" d="M45.8,234.7H4.2c-2.3,0-4.2,4.8-4.2,10.7v256c0,5.9,1.9,10.7,4.2,10.7h41.6c2.3,0,4.2-4.8,4.2-10.7v-256
			C50,239.4,48.1,234.7,45.8,234.7z"/>
	</g>
</g>
<g>
	<g>
		<path class="st0" d="M274.3-0.1h-40.8c-2.3,0-4.1,4.8-4.1,10.7v490.7c0,5.9,1.8,10.7,4.1,10.7h40.8c2.3,0,4.1-4.8,4.1-10.7V10.6
			C278.4,4.7,276.5-0.1,274.3-0.1z"/>
	</g>
</g>
<g>
	<g>
		<path class="st0" d="M503.8,106.7H462c-2.3,0-4.2,4.8-4.2,10.7v384c0,5.9,1.9,10.7,4.2,10.7h41.8c2.3,0,4.2-4.8,4.2-10.7v-384
			C508,111.4,506.1,106.7,503.8,106.7z"/>
	</g>
</g>
</svg>
