<svg xmlns="http://www.w3.org/2000/svg" xmlns:xlink="http://www.w3.org/1999/xlink" fill="#fff
" version="1.1" x="0px" y="0px" viewBox="0 0 100 125" enable-background="new 0 0 100 100" xml:space="preserve"><g><path d="M27,60c-4.411,0-8,3.589-8,8s3.589,8,8,8s8-3.589,8-8S31.411,60,27,60z M27,74c-3.309,0-6-2.691-6-6s2.691-6,6-6   s6,2.691,6,6S30.309,74,27,74z"/><path d="M15.694,68.22c0.295,0.106,0.625,0.069,0.889-0.103c0.264-0.172,0.431-0.458,0.451-0.772C17.375,62.104,21.752,58,27,58   c5.514,0,10,4.486,10,10c0,0.552,0.448,1,1,1h26c0.552,0,1-0.448,1-1c0-5.514,4.486-10,10-10c5.248,0,9.625,4.104,9.966,9.345   c0.021,0.314,0.188,0.6,0.451,0.772c0.264,0.171,0.594,0.208,0.889,0.103C90.623,66.65,93,62.843,93,57.5v-22   C93,28.299,88.701,24,81.5,24h-61C13.299,24,9,28.299,9.004,35.41L7,57.5C7,63.08,11.684,66.762,15.694,68.22z M9.14,56h2.36   c0.276,0,0.5,0.224,0.5,0.5S11.776,57,11.5,57H9.05L9.14,56z M11.5,59c1.378,0,2.5-1.122,2.5-2.5S12.878,54,11.5,54H9.322L11,35.5   c0-6.038,3.462-9.5,9.5-9.5h61c6.038,0,9.5,3.462,9.5,9.5v22c0,3.977-1.45,6.826-4.211,8.319C85.755,60.212,80.824,56,75,56   c-6.28,0-11.449,4.85-11.958,11H38.958C38.449,60.85,33.28,56,27,56c-5.835,0-10.774,4.228-11.794,9.85   C12.505,64.572,9.77,62.222,9.135,59H11.5z"/><path d="M73,45h14c0.552,0,1-0.448,1-1v-8c0-5.953-2.58-7-8-7h-7c-0.552,0-1,0.448-1,1v14C72,44.552,72.448,45,73,45z M74,31h6   c5.103,0,6,0.748,6,5v7H74V31z"/><path d="M75,60c-4.411,0-8,3.589-8,8s3.589,8,8,8s8-3.589,8-8S79.411,60,75,60z M75,74c-3.309,0-6-2.691-6-6s2.691-6,6-6   s6,2.691,6,6S78.309,74,75,74z"/><path d="M14,50c0,0.552,0.448,1,1,1h4c0.552,0,1-0.448,1-1c0-0.932,0.268-3.522,1.446-5H30c0.552,0,1-0.448,1-1V30   c0-0.552-0.448-1-1-1h-6c-3.103,0-5.51,0.845-7.157,2.512c-2.964,3-2.903,8.01-2.854,12.036C13.994,44.046,14,44.532,14,45V50z    M18.266,32.917C19.541,31.627,21.416,31,24,31h5v12h-8c-0.265,0-0.52,0.105-0.707,0.293c-1.624,1.624-2.098,4.27-2.236,5.707H16   v-4c0-0.476-0.006-0.97-0.012-1.477C15.941,39.68,15.889,35.323,18.266,32.917z"/><path d="M35,45h14c0.552,0,1-0.448,1-1V30c0-0.552-0.448-1-1-1H35c-0.552,0-1,0.448-1,1v14C34,44.552,34.448,45,35,45z M36,31h12   v12H36V31z"/><path d="M54,45h14c0.552,0,1-0.448,1-1V30c0-0.552-0.448-1-1-1H54c-0.552,0-1,0.448-1,1v14C53,44.552,53.448,45,54,45z M55,31h12   v12H55V31z"/><path d="M25.5,47c-1.378,0-2.5,1.122-2.5,2.5s1.122,2.5,2.5,2.5h4c1.378,0,2.5-1.122,2.5-2.5S30.878,47,29.5,47H25.5z M30,49.5   c0,0.276-0.224,0.5-0.5,0.5h-4c-0.276,0-0.5-0.224-0.5-0.5s0.224-0.5,0.5-0.5h4C29.776,49,30,49.224,30,49.5z"/></g></svg>