<svg xmlns="http://www.w3.org/2000/svg" viewBox="0 0 32 40" x="0px" fill="#fff" y="0px"><title>Artboard 2</title><g data-name="Layer 2"><path d="M20.5,27H3.78a2.61,2.61,0,0,1-2-1,2.55,2.55,0,0,1-.5-2.16,9.74,9.74,0,0,1,9.51-7.61,9.59,9.59,0,0,1,5.85,2,8,8,0,0,1,1,.89A9.72,9.72,0,0,1,20.5,26Zm-9.75-8.75a7.74,7.74,0,0,0-7.56,6,.55.55,0,0,0,.11.47.61.61,0,0,0,.48.23H18.44a7.74,7.74,0,0,0-2.21-4.48,6.22,6.22,0,0,0-.81-.69A7.64,7.64,0,0,0,10.75,18.25Z"/><path d="M10.75,15.13A4.12,4.12,0,1,1,14.95,11,4.16,4.16,0,0,1,10.75,15.13Zm0-6.24A2.12,2.12,0,1,0,12.95,11,2.16,2.16,0,0,0,10.75,8.9Z"/><path d="M28.22,27H18.5V26a7.74,7.74,0,0,0-2.27-5.48,6.22,6.22,0,0,0-.81-.69L14.31,19l1.09-.83a9.59,9.59,0,0,1,5.85-2,9.74,9.74,0,0,1,9.51,7.61,2.55,2.55,0,0,1-.5,2.16A2.61,2.61,0,0,1,28.22,27Zm-7.77-2h7.77a.61.61,0,0,0,.48-.23.55.55,0,0,0,.11-.47,7.74,7.74,0,0,0-7.56-6,7.64,7.64,0,0,0-3.58.88A9.72,9.72,0,0,1,20.45,25Z"/><path d="M21.25,15.13A4.12,4.12,0,1,1,25.45,11,4.16,4.16,0,0,1,21.25,15.13Zm0-6.23A2.12,2.12,0,1,0,23.45,11,2.16,2.16,0,0,0,21.25,8.9Z"/></g></svg>