<?xml version="1.0" encoding="utf-8"?>
<!-- Generator: Adobe Illustrator 23.0.4, SVG Export Plug-In . SVG Version: 6.00 Build 0)  -->
<svg version="1.1" id="Réteg_1" xmlns="http://www.w3.org/2000/svg" xmlns:xlink="http://www.w3.org/1999/xlink" x="0px" y="0px"
	 viewBox="0 0 512 512" style="enable-background:new 0 0 512 512;" xml:space="preserve">
<style type="text/css">
	.st0{fill:#FFC755;}
</style>
<g id="Gamer-Joystick-Video_Game-Player-Avatar">
	<path class="st0" d="M336,464v16H96v-72H80v72H32v-69.2c-0.1-31.5,20.4-59.4,50.6-68.7l33.9-10.6C126.8,353,153.7,368,184,368
		s57.2-15,67.5-36.5l33.9,10.6l0.4,0.2l2.6-9l2.6-6.2l-0.7-0.2L224,306.1v-11.8c24.3-12.5,41.5-35.5,46.5-62.3h9.5
		c22.1,0,40-18,40-40c0-15.9-9.4-30.2-24-36.6V120c-0.1-57.4-46.6-103.9-104-104h-16C118.6,16.1,72.1,62.6,72,120v35.4
		c-20.2,8.9-29.5,32.5-20.6,52.7c6.4,14.5,20.7,23.9,36.6,24h9.5c5,26.8,22.2,49.8,46.5,62.3v11.8l-66.2,20.7
		c-36.8,11.4-61.9,45.5-61.8,84V488c0,4.4,3.6,8,8,8h320c4.4,0,8-3.6,8-8v-24H336z M256,149.9c-10.5-5-19.4-19.5-22.6-38.3
		c-0.7-4.4-4.9-7.3-9.2-6.6c-0.5,0.1-1,0.2-1.5,0.4c-25.1,8.6-52.3,8.6-77.4,0c-2.2-0.8-4.7-0.6-6.8,0.6c-2.1,1.2-3.5,3.2-3.9,5.6
		c-3.1,18.8-12.1,33.3-22.6,38.3V136c0-39.8,32.2-72,72-72s72,32.2,72,72V149.9z M304,192c0,13.2-10.8,24-24,24h-8v-48h8
		C293.2,168,304,178.8,304,192z M96,216h-8c-13.3,0-24-10.7-24-24s10.7-24,24-24h8V216z M96,136v16h-8v-32c0-48.6,39.4-88,88-88h16
		c48.6,0,88,39.4,88,88v32h-8v-16c0-48.6-39.4-88-88-88C135.4,48,96,87.4,96,136z M112,216v-49c16.4-4.2,30.2-20.6,36.4-43.7
		c23.3,6.2,47.9,6.2,71.2,0c6.2,23,20,39.5,36.4,43.7v49c0,39.8-32.2,72-72,72S112,255.8,112,216L112,216z M208,300.6V312
		c0,2-8.5,8-24,8s-24-6-24-8v-11.4C175.7,305.1,192.3,305.1,208,300.6z M147.4,321.8c6,8.5,19.8,14.2,36.6,14.2s30.6-5.7,36.6-14.2
		l15.4,4.8c-8.4,15-28.8,25.4-52.1,25.4s-43.7-10.3-52.1-25.4L147.4,321.8z"/>
	<path class="st0" d="M136,176h16v16h-16V176z"/>
	<path class="st0" d="M216,176h16v16h-16V176z"/>
	<path class="st0" d="M214.2,234.7l-15.1-5.3c-2.9,8.3-12.1,12.7-20.4,9.8c-4.6-1.6-8.2-5.2-9.8-9.8l-15.1,5.3
		c5.9,16.7,24.2,25.4,40.8,19.5C203.8,251,211,243.8,214.2,234.7L214.2,234.7z"/>
	<path class="st0" d="M424,336h-96c-35.3,0-64,28.7-64,64v40c0,13.2,10.8,24,24,24h24c1.8,0,3.5-0.6,5-1.7l36.2-28.6
		c1.4-1.1,3.2-1.6,5-1.7h35.8c1.8,0,3.5,0.6,5,1.8l36.2,28.6c1.4,1.1,3.2,1.6,5,1.7h24c13.2,0,24-10.8,24-24v-40
		C488,364.7,459.3,336,424,336L424,336z M472,440c0,4.4-3.6,8-8,8h-21.2l-34-26.8c-4.2-3.4-9.5-5.2-14.9-5.2h-35.8
		c-5.4,0-10.6,1.8-14.9,5.2l-34,26.8H288c-4.4,0-8-3.6-8-8v-40c0-26.5,21.5-48,48-48h96c26.5,0,48,21.5,48,48L472,440z"/>
	<path class="st0" d="M328,368h-16v16h-16v16h16v16h16v-16h16v-16h-16V368z"/>
	<path class="st0" d="M424,368h16v16h-16V368z"/>
	<path class="st0" d="M440,384h16v16h-16V384z"/>
	<path class="st0" d="M424,400h16v16h-16V400z"/>
	<path class="st0" d="M408,384h16v16h-16V384z"/>
	<path class="st0" d="M352,368h16v16h-16V368z"/>
	<path class="st0" d="M384,368h16v16h-16V368z"/>
</g>
</svg>
