<?xml version="1.0" encoding="utf-8"?>
<!-- Generator: Adobe Illustrator 23.0.4, SVG Export Plug-In . SVG Version: 6.00 Build 0)  -->
<svg version="1.1" id="Réteg_1" xmlns="http://www.w3.org/2000/svg" xmlns:xlink="http://www.w3.org/1999/xlink" x="0px" y="0px"
	 viewBox="0 0 512 512" style="enable-background:new 0 0 512 512;" xml:space="preserve">
<style type="text/css">
	.st0{fill:#FFFFFF;}
</style>
<path class="st0" d="M459.3,90H130.3C58.5,90,0,148.5,0,220.3V324c0,27.2,22.1,49.4,49.4,49.4h12.9c6.9,28.3,32.4,49.5,62.8,49.5
	s56-21.1,62.8-49.5h136.2c6.9,28.3,32.4,49.5,62.8,49.5c30.9,0,56.8-21.8,63.2-50.9c35.2-6.8,61.9-37.9,61.9-75V142.7
	C512,113.7,488.3,90,459.3,90z M481.6,142.7v73.8H351.5v-96.1h107.8C471.6,120.4,481.6,130.4,481.6,142.7z M321.1,216.5H190.9v-96.1
	h130.1V216.5z M130.3,120.4h30.2v96.1h-30.8c-25.1,0-49.9,6.7-71.6,19.3L30.4,252v-31.7C30.4,165.2,75.2,120.4,130.3,120.4z
	 M159.3,358.2c0,18.9-15.4,34.3-34.3,34.3c-18.9,0-34.3-15.4-34.3-34.3s15.4-34.3,34.3-34.3C144,323.9,159.3,339.3,159.3,358.2z
	 M386.9,392.4c-18.9,0-34.3-15.4-34.3-34.3s15.4-34.3,34.3-34.3c18.9,0,34.3,15.4,34.3,34.3S405.8,392.4,386.9,392.4z M449.2,340.9
	c-7.6-27.3-32.6-47.4-62.3-47.4c-30.4,0-56,21.1-62.8,49.5H187.9c-6.9-28.3-32.4-49.5-62.8-49.5s-56,21.1-62.8,49.5H49.4
	c-10.5,0-19-8.5-19-19v-36.8l43.1-25.1c17.1-9.9,36.5-15.2,56.3-15.2h351.8v50C481.6,317.6,468,335.1,449.2,340.9z"/>
</svg>
