<?xml version="1.0" encoding="utf-8"?>
<!-- Generator: Adobe Illustrator 23.0.4, SVG Export Plug-In . SVG Version: 6.00 Build 0)  -->
<svg version="1.1" id="_x31__x2C_5" xmlns="http://www.w3.org/2000/svg" xmlns:xlink="http://www.w3.org/1999/xlink" x="0px"
	 y="0px" viewBox="0 0 512 512" style="enable-background:new 0 0 512 512;" xml:space="preserve">
<style type="text/css">
	.st0{fill:#FFFFFF;}
</style>
<g>
	<path class="st0" d="M197.3,485.3c-8.8,0-16-7.2-16-16v-352c0-8.8,7.2-16,16-16c8.8,0,16,7.2,16,16v352
		C213.3,478.2,206.2,485.3,197.3,485.3z"/>
</g>
<g>
	<path class="st0" d="M133.3,298.7H80c-8.8,0-16-7.2-16-16c0-8.8,7.2-16,16-16h53.3c8.8,0,16,7.2,16,16
		C149.3,291.5,142.2,298.7,133.3,298.7z"/>
</g>
<g>
	<path class="st0" d="M138.7,213.3H80c-8.8,0-16-7.2-16-16c0-8.8,7.2-16,16-16h58.7c8.8,0,16,7.2,16,16
		C154.7,206.2,147.5,213.3,138.7,213.3z"/>
</g>
<g>
	<path class="st0" d="M133.3,384H80c-8.8,0-16-7.2-16-16c0-8.8,7.2-16,16-16h53.3c8.8,0,16,7.2,16,16
		C149.3,376.8,142.2,384,133.3,384z"/>
</g>
<g>
	<path class="st0" d="M453.3,490.7H58.7C26.3,490.7,0,464.4,0,432V80c0-32.4,26.3-58.7,58.7-58.7h394.7c32.4,0,58.7,26.3,58.7,58.7
		v352C512,464.4,485.7,490.7,453.3,490.7z M58.7,53.3C44,53.3,32,65.3,32,80v352c0,14.7,12,26.7,26.7,26.7h394.7
		c14.7,0,26.7-12,26.7-26.7V80c0-14.7-12-26.7-26.7-26.7H58.7z"/>
</g>
<g>
	<path class="st0" d="M496,128H16c-8.8,0-16-7.2-16-16s7.2-16,16-16h480c8.8,0,16,7.2,16,16S504.8,128,496,128z"/>
</g>
</svg>
