<svg xmlns="http://www.w3.org/2000/svg" xmlns:xlink="http://www.w3.org/1999/xlink" fill="#fff" version="1.1" x="0px" y="0px" viewBox="0 0 24 30" style="enable-background:new 0 0 24 24;" xml:space="preserve"><path d="M3.9287109,23h6c1.6542969,0,3-1.3457031,3-3v-4c0-0.5522461-0.4472656-1-1-1s-1,0.4477539-1,1v4  c0,0.5512695-0.4482422,1-1,1h-6c-0.5517578,0-1-0.4487305-1-1V4c0-0.5512695,0.4482422-1,1-1h6c0.5517578,0,1,0.4487305,1,1v4  c0,0.5522461,0.4472656,1,1,1s1-0.4477539,1-1V4c0-1.6542969-1.3457031-3-3-3h-6c-1.6542969,0-3,1.3457031-3,3v16  C0.9287109,21.6542969,2.2744141,23,3.9287109,23z"/><path d="M6.9287109,12c0,0.5522461,0.4472656,1,1,1h11.5859375l-4.2929688,4.2929688  c-0.390625,0.390625-0.390625,1.0234375,0,1.4140625C15.4169922,18.9023438,15.6728516,19,15.9287109,19  s0.5117188-0.0976563,0.7070313-0.2929688l5.9993286-5.9993286c0.0925293-0.0923462,0.1658325-0.203064,0.2166138-0.3258057  c0.1010132-0.2442627,0.1010132-0.5195313,0-0.7637939c-0.0507813-0.1227417-0.1240845-0.2334595-0.2166138-0.3258057  l-5.9993286-5.9993286c-0.390625-0.390625-1.0234375-0.390625-1.4140625,0s-0.390625,1.0234375,0,1.4140625L19.5146484,11H7.9287109  C7.3759766,11,6.9287109,11.4477539,6.9287109,12z"/></svg>