<svg xmlns="http://www.w3.org/2000/svg" xmlns:xlink="http://www.w3.org/1999/xlink" fill="#fff" version="1.0" x="0px" y="0px" viewBox="0 0 100 125" enable-background="new 0 0 100 100" xml:space="preserve"><path d="M57.6248016,85.6832581c0,6.5797806-8.2440758,9.740654-13.0047379,5.2380219  c-2.6577148-2.5158005-3.2640877-7.2377625-0.2709312-7.2377625h11.2759323  C56.7345963,83.6835175,57.6248016,84.5737228,57.6248016,85.6832581z"/><path d="M25.0871525,76.6005859V47.1463966c0-9.740654,5.8572922-18.3072662,14.4368076-22.2551346  c0-5.8701935-0.8386002-10.7469711,3.057663-14.7464447c6.6313858-6.8249073,17.8815155-1.8707209,17.8815155,7.5344925v7.2119522  c8.5666161,3.9478683,14.4368095,12.5015793,14.4368095,22.2551346v29.4541893c3.1350708,0,6.7862015-0.6966858,6.7862015,1.999733  c0,1.0966263-0.8902054,1.9997406-1.999733,1.9997406c-19.790947,0-39.5947876,0-59.398632,0  c-2.6319122,0-2.6319122-3.9994736,0-3.9994736H25.0871525z"/></svg>