<?xml version="1.0" encoding="utf-8"?>
<!-- Generator: Adobe Illustrator 23.0.4, SVG Export Plug-In . SVG Version: 6.00 Build 0)  -->
<svg version="1.1" id="Capa_1" xmlns="http://www.w3.org/2000/svg" xmlns:xlink="http://www.w3.org/1999/xlink" x="0px" y="0px"
	 viewBox="0 0 512 512" style="enable-background:new 0 0 512 512;" xml:space="preserve">
<style type="text/css">
	.st0{fill:#A6319C;}
</style>
<g>
	<g>
		<path class="st0" d="M507.6,4.4c-4.2-4.2-10.6-5.5-16.2-3.3L9.4,193.9c-5.5,2.2-9.2,7.5-9.4,13.4c-0.2,5.9,3.1,11.4,8.4,14
			l190.1,92.2l92.2,190.1c2.5,5.2,7.8,8.5,13.5,8.5c0.2,0,0.4,0,0.5,0c5.9-0.2,11.2-3.9,13.4-9.4l192.8-482
			C513.2,15,511.9,8.6,507.6,4.4z M52.1,209.1l382.6-153l-228,228L52.1,209.1z M302.9,459.9l-75-154.6l228-228L302.9,459.9z"/>
	</g>
</g>
</svg>
