<?xml version="1.0" encoding="utf-8"?>
<!-- Generator: Adobe Illustrator 23.0.4, SVG Export Plug-In . SVG Version: 6.00 Build 0)  -->
<svg version="1.1" id="Réteg_1" xmlns="http://www.w3.org/2000/svg" xmlns:xlink="http://www.w3.org/1999/xlink" x="0px" y="0px"
	 viewBox="0 0 511 511" style="enable-background:new 0 0 511 511;" xml:space="preserve">
<style type="text/css">
	.st0{fill:#A6319C;}
</style>
<path class="st0" d="M159.7,463.2c192.8,0,298.3-159.8,298.3-298.3c0-4.5-0.1-9.1-0.3-13.6c20.5-14.8,38.3-33.3,52.3-54.3
	c-18.8,8.4-39,14-60.2,16.5c21.6-13,38.3-33.5,46.1-58c-20.3,12-42.7,20.7-66.6,25.4c-19.1-20.4-46.4-33.1-76.5-33.1
	c-57.9,0-104.8,47-104.8,104.8c0,8.2,0.9,16.2,2.7,23.9c-87.1-4.4-164.4-46.1-216.1-109.5c-9,15.5-14.2,33.5-14.2,52.7
	c0,36.4,18.5,68.5,46.7,87.3c-17.2-0.5-33.4-5.3-47.5-13.1c0,0.4,0,0.9,0,1.3c0,50.8,36.1,93.2,84.1,102.8
	c-8.8,2.4-18.1,3.7-27.6,3.7c-6.7,0-13.3-0.7-19.7-1.9c13.3,41.7,52.1,72,97.9,72.8c-35.9,28.1-81.1,44.9-130.2,44.9
	c-8.5,0-16.8-0.5-25-1.5C45.4,445.8,100.5,463.2,159.7,463.2"/>
</svg>
